<?xml version="1.0" encoding="UTF-8"?>
<svg id="Layer_2" data-name="Layer 2" xmlns="http://www.w3.org/2000/svg" viewBox="0 0 455.29 638.08">
  <defs>
    <style>
      .cls-1 {
        fill: #ebd004;
      }

      .cls-2 {
        fill: #f6db05;
      }

      .cls-3 {
        fill: none;
      }
    </style>
  </defs>
  <g id="Layer_8" data-name="Layer 8">
    <g>
      <path d="m241.17,637.88c-.1-.1-.16-.25-.16-.46v-97.39s-.55,18.33-.55,18.33c0,.09-.05.15-.14.18-.09.03-.17.06-.26.09-.04,0-.07.04-.08.08-.02.06.01.13.07.15.33.15.5.39.49.7-.02,3.03-.03,6.07-.02,9.12.02,3.66-1.37,7.48-.9,11.63,0,.09-.03.14-.11.17-.1.03-.2.07-.29.1-.02,0-.05,0-.07,0-.07-.02-.11-.08-.1-.15l.2-.8c.02-.07,0-.15-.07-.19-.08-.06-.19-.04-.25.04-.19.26-.25.59-.16.98,0,.01,0,.02-.02.02s-.02,0-.02-.02c-.16-.33-.25-.69-.26-1.1,0-.06-.04-.1-.09-.1-.06,0-.1.04-.11.09l-.23,3.41s-.03.06-.06.07c-.05.02-.11,0-.13-.05-.03-.08-.05-.16-.08-.25-.02-.04-.06-.08-.1-.08-.07,0-.14.04-.15.11v.48c0,.05-.05.1-.1.12-.08.03-.16-.02-.19-.1l-.4-3.06c-.01-.11-.07-.13-.16-.08-.08.04-.14.1-.19.18-.37.54-.45.52-.25-.07.23-.65.03-1.18-.6-1.61-.26-.18-.43-.42-.51-.72-.02-.09-.04-.17-.07-.26-.27-.84-.44-.82-.51.06l-.06.75s-.03.07-.07.08c-.04,0-.07-.03-.08-.07-.03-.09-.06-.19-.08-.3-.03-.15-.06-.15-.1,0-.84,2.69-2.01,5.21-3.51,7.56-.76,1.2-.23,4.29-.94,5.9-.27.61-.67,1.15-1.22,1.64-.13.12-.24.1-.31-.07-.13-.29-.35-.48-.67-.57-.15-.04-.27-.13-.35-.26l-2.06-3.35c-.09-.15-.2-.17-.33-.04l-.32.32c-.17.16-.22.13-.17-.09.2-.93-.12-1.52-.95-1.75-.14-.04-.19-.13-.16-.27.03-.14.02-.27-.04-.4-.13-.25-.25-.24-.37.01l-.33.69s-.06.08-.11.09c-.1.03-.2-.02-.23-.11-.03-.09-.07-.19-.1-.28-.03-.11-.09-.12-.18-.05-1.44,1.27-1.03,2.29-1.78,3.77-2.14,4.23-2.54,10.11-3.02,14.86-.02.15-.13.26-.27.31-.2.06-.41-.06-.47-.26-.13-.49-.19-1.11-.2-1.87-.43-24.65-.62-49.31-.58-73.97,0-.09-.01-.14-.03-.15-.09-.03-.17-.05-.26-.08-.16-.05-.24,0-.24.17l-.14,46.11-.05,61.52c0,.22-.11.41-.28.54h26.68Z"/>
      <g>
        <path class="cls-3" d="m214.27,389.83c-20.64.48-36.45,16.94-36.54,37.5-.03,7.24,0,14.41.09,21.52,0,.26.21.46.47.46h35.98c.28,0,.5-.22.5-.5v-58.5c0-.33-.17-.49-.5-.48Z"/>
        <path d="m353.78,606.59c-7.32-.05-14.57-.07-21.75-.05-19.62.06-36.76-11.83-41.9-30.85-.94-3.47-1.44-8.77-1.49-15.89-.19-25.57-.21-51.15-.04-76.74-.14-22.41-.15-44.83-.04-67.25.03-6.35,0-10.33-.12-11.94-1.74-24.66-22.28-42.21-46.64-43.45-.13,0-.24-.06-.33-.14v.24h-26.49v-.08c-.06.02-.14.02-.21.02v116.73s.05,98.62.05,98.62l.14-46.11c0-.17.08-.22.24-.17.09.03.17.05.26.08.02,0,.03.06.03.15-.04,24.66.15,49.32.58,73.97,0,.76.07,1.38.2,1.87.04.14.16.25.31.27.21.03.4-.11.43-.32.48-4.75.88-10.63,3.02-14.86.75-1.48.34-2.5,1.78-3.77.09-.07.15-.06.18.05.03.09.07.19.1.28.01.05.04.08.09.1.09.05.2,0,.25-.08l.33-.69c.12-.25.24-.26.37-.01.06.13.07.26.04.4-.03.14.02.23.16.27.83.23,1.15.82.95,1.75-.05.22,0,.25.17.09l.32-.32c.13-.13.24-.11.33.04l2.06,3.35c.08.13.2.22.35.26.32.09.54.28.67.57.07.17.18.19.31.07.55-.49.95-1.03,1.22-1.64.71-1.61.18-4.7.94-5.9,1.5-2.35,2.67-4.87,3.51-7.56.04-.14.07-.14.1,0,.02.11.05.21.08.3,0,.04.04.07.08.07.04,0,.07-.04.07-.08l.06-.75c.07-.88.24-.9.51-.06.03.09.05.17.07.26.08.3.25.54.51.72.63.43.83.96.6,1.61-.2.59-.12.61.25.07.05-.08.11-.14.19-.18.09-.05.15-.03.16.08l.4,3.06c.02.05.06.09.12.1.08.01.16-.04.17-.12v-.48s.04-.09.08-.1c.07-.03.14,0,.17.07.03.09.05.17.08.25.01.03.04.05.07.06.05.01.11-.02.12-.08l.23-3.41c0-.06.05-.1.11-.09.06,0,.1.05.09.1.01.41.1.77.26,1.1,0,.01.01.02.02.02s.02-.01.02-.02c-.09-.39-.03-.72.16-.98.04-.06.12-.09.19-.07.1.02.15.12.13.22l-.2.8s0,.05,0,.07c.02.07.1.1.17.08.09-.03.19-.07.29-.1.08-.03.12-.08.11-.17-.47-4.15.92-7.97.9-11.63,0-3.05,0-6.09.02-9.12,0-.31-.16-.55-.49-.7-.04-.01-.07-.05-.08-.08-.02-.06.02-.13.09-.15.09-.03.17-.06.26-.09.09-.03.13-.09.14-.18l.54-18.33.26-140.78c0-.96.47-1.33,1.4-1.1,11.88,2.89,13.1,9.64,13.1,21.29.02,48.04.02,96.08,0,144.12,0,9.25.36,15.89,1.08,19.93,4.11,22.86,21.71,41.98,44.78,47.3,4.28.98,10.8,1.48,19.55,1.51,10.53.03,21.23.04,32.1.03.56,0,1.01-.45,1.01-1.01v-24.25c0-.27-.22-.48-.49-.48Z"/>
      </g>
    </g>
  </g>
  <g id="Layer_7" data-name="Layer 7">
    <path class="cls-2" d="m177.73,427.33c.09-20.56,15.9-37.02,36.54-37.5.33,0,.5.15.5.48v58.5c0,.28-.22.5-.5.5h-35.98c-.26,0-.46-.2-.47-.46-.09-7.11-.12-14.28-.09-21.52Z"/>
  </g>
  <g id="Layer_5" data-name="Layer 5">
    <g>
      <path class="cls-2" d="m455.14,276.49c0-.35-.16-.6-.48-.75l-212.25-99.06c-.1-.05-.22-.08-.33-.08-.43,0-.78.35-.79.79l-.02,106.6h.2v76.28c.09.08.2.13.33.14,24.36,1.24,44.9,18.79,46.64,43.45.11,1.61.15,5.59.12,11.94-.11,22.42-.1,44.84.04,67.25l.12,37.21s0,.04,0,.06c.03.11.15.16.25.13.09-.03.16-.07.21-.13.04-.05.06-.11.06-.19.01-2.64.03-5.28.04-7.92,0-.07.03-.1.1-.1h.12v9.28c.01.37.1.39.29.08l.14-.23s.07-.07.12-.07c.09-.01.18.05.19.14.03.31.04.62.03.92,0,.23.08.42.26.57.44.34.96.56,1.57.65.48.07.69-.13.63-.61-.02-.11,0-.21.03-.3.1-.25.28-.36.55-.33,1.15.17,2.96-.05,5.45-.65,5.93-1.41,12.91-.97,19.96-2.16,2.96-.5,4.92,1.11,7.96-.34.29-.14.6-.16.91-.05,2.2.74,4.6,1.97,6.28-.61.19-.29.44-.38.76-.27.31.11.63.11.95.01.22-.07.5-.27.85-.62.91-.91,1.83-1.02,2.78-.33.31.22.64.39.99.52l2.68.97c.3.11.59.09.86-.08,1.07-.65,2.23-1.07,3.48-1.28.3-.05.57-.16.82-.35.56-.43,1.19-.72,1.89-.88.29-.07.53-.2.74-.4.75-.73,1.57-1.03,2.45-.92.37.05.68.21.93.49l1.15,1.33c.17.21.32.19.43-.06.11-.23.29-.36.56-.39,1.05-.13,2.13-.44,3.24-.91,3.01-1.28,4.66.89,7.35,0,3.67-1.21,5.81,1.23,9.18-.5,1.89-.98,4.73,1.79,8.15-.12.12-.06.25-.09.38-.07l5.2.89c.39.07.75.02,1.1-.15l1.47-.69c.31-.14.62-.16.95-.05,2.59.88,3.61,1,6.57.23,1.9-.49,3.91.98,4.76.76.09-.03.16-.09.21-.18.07-.14.17-.18.32-.13.87.31,1.71.18,2.51-.37.09-.06.19-.12.29-.16.82-.35,1.78.04,2.13.87.36.86,1,1.52,1.93,1.98.39.19.76.17,1.12-.06.91-.59,1.86-.86,2.86-.81.43.03.81.17,1.15.44.93.72,1.93.64,3-.23.21-.17.46-.28.73-.32,5.19-.79,10.04-2.11,15.25-2.99,4.41-.75,8.16-2.46,12.82-2.63.26,0,.51.12.66.33.94,1.33,2,1.62,3.17.86.37-.23.59-.14.66.29.32,1.78.4,3.88.24,6.3-.03.38.13.7.48.97.21.15.31.1.31-.16l-.05-6.23c0-.12.02-.18.05-.18.02,0,.04,0,.05-.01.03,0,.05,0,.05.01-.05.29-.02.55.09.77.11.21.16.2.17-.03l.51-36.81v-188l-.12-12.57Z"/>
      <path class="cls-2" d="m455.26,477.06l-.51,36.81c0,.23-.06.24-.17.03-.11-.22-.14-.48-.09-.77,0,0-.02-.01-.05-.01-.01,0-.03.01-.05.01-.03,0-.05.06-.05.18l.05,6.23c0,.26-.1.31-.31.16-.35-.27-.51-.59-.48-.97.16-2.42.08-4.52-.24-6.3-.07-.43-.29-.52-.66-.29-1.17.76-2.23.47-3.17-.86-.15-.21-.4-.34-.66-.33-4.66.17-8.41,1.88-12.82,2.63-5.21.88-10.06,2.2-15.25,2.99-.27.04-.52.15-.73.32-1.07.87-2.07.95-3,.23-.34-.27-.72-.41-1.15-.44-1-.05-1.95.22-2.86.81-.36.23-.73.25-1.12.06-.93-.46-1.57-1.12-1.93-1.98-.04-.1-.1-.2-.16-.29-.51-.74-1.52-.93-2.26-.42-.8.55-1.64.68-2.51.37-.15-.05-.25-.01-.32.13-.05.09-.12.15-.21.18-.85.22-2.86-1.25-4.76-.76-2.96.77-3.98.65-6.57-.23-.33-.11-.64-.09-.95.05l-1.47.69c-.35.17-.71.22-1.1.15l-5.2-.89c-.13-.02-.26,0-.38.07-3.42,1.91-6.26-.86-8.15.12-3.37,1.73-5.51-.71-9.18.5-2.69.89-4.34-1.28-7.35,0-1.11.47-2.19.78-3.24.91-.27.03-.45.16-.56.39-.11.25-.26.27-.43.06l-1.15-1.33c-.25-.28-.56-.44-.93-.49-.88-.11-1.7.19-2.45.92-.21.2-.45.33-.74.4-.7.16-1.33.45-1.89.88-.25.19-.52.3-.82.35-1.25.21-2.41.63-3.48,1.28-.27.17-.56.19-.86.08l-2.68-.97c-.35-.13-.68-.3-.99-.52-.95-.69-1.87-.58-2.78.33-.35.35-.63.55-.85.62-.32.1-.64.1-.95-.01-.32-.11-.57-.02-.76.27-1.68,2.58-4.08,1.35-6.28.61-.31-.11-.62-.09-.91.05-3.04,1.45-5-.16-7.96.34-7.05,1.19-14.03.75-19.96,2.16-2.49.6-4.3.82-5.45.65-.27-.03-.45.08-.55.33-.04.09-.05.19-.03.3.06.48-.15.68-.63.61-.61-.09-1.13-.31-1.57-.65-.18-.15-.27-.34-.26-.57.01-.3,0-.61-.03-.92,0-.05-.03-.09-.07-.12-.08-.05-.18-.03-.24.05l-.14.23c-.19.31-.28.29-.28-.08v-9.28h-.13c-.07,0-.1.03-.1.1-.01,2.64-.03,5.28-.04,7.92,0,.08-.02.14-.06.19-.05.06-.12.1-.21.13-.02,0-.04,0-.06,0-.11,0-.2-.09-.2-.2l-.12-37.21c-.17,25.59-.15,51.17.04,76.74.05,7.12.55,12.42,1.49,15.89,5.14,19.02,22.28,30.91,41.9,30.85,7.18-.02,14.43,0,21.75.05.27,0,.49.21.49.48v24.25c0,.56-.45,1.01-1.01,1.01-10.87,0-21.57,0-32.1-.03-8.75-.03-15.27-.53-19.55-1.51-23.07-5.32-40.67-24.44-44.78-47.3-.72-4.04-1.08-10.68-1.08-19.93.03-48.04.03-96.08,0-144.12,0-11.65-1.22-18.4-13.1-21.29-.93-.23-1.4.14-1.4,1.1l-.26,140.78v97.39c0,.21.06.36.17.46h12.07v.15l201.46.05h0c.22,0,.41-.13.5-.31v-25.7h.09l-.03-135.01Z"/>
    </g>
    <path class="cls-2" d="m290.82,521.17c1.54,5.31,6.52,8.19,11.94,7.58,3.29-.37,5.73-2.31,8.76-3.34,3.21-1.1,7.1-.47,10.41-.42,15.11.24,30.24-.52,45.26-2.26s29.74-6.54,44.18-4.3c13.35,2.07,26.29,6.09,37.82-3.4,5.97-4.91-2.56-13.36-8.49-8.49-8.69,7.16-23.45.03-33.26-.53-12.18-.7-24.41,2.71-36.42,4.25-12.44,1.59-24.97,2.48-37.51,2.71-6.24.11-12.52-.34-18.74-.1-2.44.09-4.87.42-7.17,1.26-1.23.45-2.39,1.04-3.57,1.6l-1.4.72c-1.29.17-1.37.68-.25,1.53-2.14-7.4-13.73-4.25-11.57,3.19h0Z"/>
    <path class="cls-2" d="m415.82,521.99c5.81-2.41,17.57-7.4,15.26-15.62-1.1-3.92-5.58-5.67-9.27-4.61s-6.76,4.25-9.31,6.72c-4.23,4.11-12.88,13.8-3.92,18.06,6.73,3.2,14.92-4.08,19.48-8.33-3.14-2.42-6.28-4.85-9.42-7.27-4.43,6.47-8.86,12.95-13.29,19.42-4.14,6.05,4.52,11.23,9.42,7.27,3.54-2.86,6.27-6.48,8.73-10.28,1.39-2.15,4.66-9.51,6.61-10.09l-4.62-.6.83.51-2.76-3.59.3.92.6-4.62-.48.69c-4.4,6.37,5.99,12.37,10.36,6.06,2.25-3.25,1.22-7.6-1.98-9.81-3.87-2.69-8.32-.69-11.11,2.49-5.53,6.3-8.35,14.5-14.98,19.85,3.14,2.42,6.28,4.85,9.42,7.27,4.43-6.47,8.86-12.95,13.29-19.42,3.97-5.8-4.61-11.76-9.42-7.27-1.38,1.29-2.77,2.47-4.35,3.5-1.02.66-3.95,1.55-2.73,2.05l4.19,4.19-.28-.66-.6,4.62c.97-2.24,2.9-4.18,4.61-5.9.76-.76,1.55-1.51,2.36-2.21.61-.56,1.25-1.07,1.92-1.55,1.57-.94.77-1.15-2.43-.63l-2.97-5.18-.09,1.18,1.76-4.24c-2.13,2.49-5.33,4.28-8.33,5.52-7.03,2.91-3.95,14.53,3.19,11.57h0Z"/>
    <path class="cls-2" d="m442.18,497.6c-.9,7.57-.58,14.94.58,22.46,1.03,6.68,12.14,5.11,11.79-1.6-.19-3.68-.39-7.37-.58-11.05-.24-4.52-4.92-7.5-9.03-5.18-2.79,1.58-4.01,4.45-6.58,6.07-2.42,1.52-5.76,1.35-8.49,1.21-6.58-.33-13.05-1.49-19.31,1.31-3.3,1.48-3.9,3.25-7.12,1.26-2.67-1.65-5.24-3.35-8.37-4.01-7.02-1.48-13.56,2.23-20.36,3.18-7.45,1.05-15.1.25-22.6.21-7.97-.04-15.93.33-23.86,1.1s-15.63,1.87-23.35,3.35c-.94.18-1.88.37-2.81.56-1.8.06-2.29,1.36-1.48,3.88.87-.08,1.46-3.01,1.6-3.82.6-3.48-.81-6.43-3.87-8.21-6.68-3.9-12.73,6.47-6.06,10.36l.8.47-2.76-3.59c.11-1.73-.15-1.69-.78.11-.54.94-.82,1.95-.82,3.03-.11,1.58.18,2.88.82,4.31,1.51,3.36,4.54,5.2,8.07,5.71,4.1.59,8.35-.86,12.36-1.59,4.49-.82,9-1.53,13.53-2.06,8.23-.97,16.51-1.5,24.79-1.59s17.02.75,25.47-.09c4.03-.4,7.86-1.26,11.74-2.39,3.46-1,6.21-1.89,9.54-.04,6.12,3.39,10.81,6.11,17.64,2.41,3.79-2.05,6.43-2.63,10.73-2.39,3.59.2,7.13.79,10.74.53,3.33-.24,6.74-.87,9.69-2.5s4.44-4.87,7.16-6.41l-9.03-5.18c.19,3.68.39,7.37.58,11.05l11.79-1.6c-.99-6.4-.92-12.85-.15-19.27.91-7.65-11.1-7.59-12,0h0Z"/>
    <path class="cls-2" d="m300.5,509.33l-1.23-2.44c-.65-1.3-2.22-2.38-3.59-2.76-1.44-.4-3.35-.22-4.62.6s-2.41,2.06-2.76,3.59l-.21,1.6c0,1.08.28,2.09.82,3.03l1.23,2.44c.65,1.3,2.22,2.38,3.59,2.76,1.44.4,3.35.22,4.62-.6s2.41-2.06,2.76-3.59l.21-1.6c0-1.08-.28-2.09-.82-3.03h0Z"/>
    <path class="cls-2" d="m1.29,485.42c.78,2.55.99,5.03-.11,7.53-1.34,3.04-.85,6.32,2.15,8.21,5.11,3.21,10.76.92,16.22-.05,6.38-1.14,12.72-1.35,18.93.73s10.84,3.37,17.16,2.58,12.23-2.11,18.17-3.76c4.84-1.34,8.99-3.73,10.37-8.88,1.12-4.18.81-10.82-2.67-13.89-3.93-3.46-9.58-1.61-11.97,2.68-3.11,5.58-4.05,13.36-5.39,19.54l11.79,1.6c-.57-6.94-1.13-13.87-1.7-20.81-.62-7.65-11.58-7.79-12,0-.4,7.33-.8,14.67-1.2,22-.37,6.88,9.95,7.98,11.79,1.6,2.27-7.9,4.1-15.88,5.49-23.98,1.3-7.55-10.26-10.8-11.57-3.19-1.4,8.1-3.23,16.08-5.49,23.98l11.79,1.6c.4-7.33.8-14.67,1.2-22h-12c.57,6.94,1.13,13.87,1.7,20.81.52,6.32,10.26,8.64,11.79,1.6.69-3.17,1.42-6.34,2.23-9.48.33-1.26.66-2.51,1.01-3.76.26-.94.53-1.88.81-2.81.77-1.86-.07-1.57-2.5.89l-4.24-1.76c-1.16-1.35,0,.65-.36,1.2-.71,1.11.38.36-1.19,1.28-2.28,1.34-6.04,1.57-8.63,2.13-6.58,1.43-12.23,2.49-18.71.17-5.62-2.01-11.19-3.14-17.19-2.9-2.94.12-5.87.51-8.78.97-1.34.21-7.65,2.26-8.77,1.57l2.15,8.21c2.44-5.53,3.12-10.93,1.32-16.78-2.25-7.36-13.84-4.22-11.57,3.19h0Z"/>
    <path class="cls-2" d="m76.18,488.3c.35,3.07.86,5.84,1.99,8.72,2,5.08,10.07,6.28,11.57,0s.78-12.45-2.15-18.39c-2.79-5.64-10.95-2.53-11.18,3.03-.19,4.4.43,8.68,1.88,12.84,1.94,5.53,9.76,5.86,11.57,0,1.27-4.11,1.74-8.2,1.35-12.48-.7-7.56-12.34-7.83-12,0,.29,6.66,1.89,20.31,10.14,22.03,9.96,2.08,13.09-11.11,14.16-18.25l-11.79-1.6c.57,4.29,1.33,8.41,2.57,12.56,1.74,5.82,9.72,5.57,11.57,0,.28-.86.57-1.71.85-2.57h-11.57c.77,3.02,1.94,5.84,3.48,8.54,2.32,4.07,10.25,3.89,10.97-1.43.27-2,.54-4,.81-6l-7.38,4.19c.77.38,1.57.64,2.41.77,4,.94,7.3-1.82,7.6-5.79.45-6.13-4.76-10.81-8.31-15.22l-1.21,9.42s4.57,1.16,5.21,1.26c2,.32,4.02.56,6.04.71,4.48.34,8.92.13,13.37-.47,6.05-.81,8.89-10.25,1.6-11.79l-1.53-.32c-7.53-1.59-10.75,9.98-3.19,11.57l1.53.32,1.6-11.79c-5.67.76-11.43.94-17.1.04-4.74-.76-9.13-2.63-13.58.1-3.57,2.19-3.63,6.41-1.21,9.42,1.13,1.41,4.94,4.74,4.79,6.74l7.6-5.79c-.84-.13-1.65-.39-2.41-.77-2.73-1.11-6.98,1.23-7.38,4.19-.27,2-.54,4-.81,6l10.97-1.43c-1.06-1.85-1.74-3.61-2.27-5.68-1.53-5.99-9.77-5.41-11.57,0-.28.86-.57,1.71-.85,2.57h11.57c-.92-3.07-1.72-6.19-2.14-9.37-.4-3-1.98-5.46-5.2-5.89-2.66-.36-6.14,1.34-6.58,4.3-.36,2.43-.82,4.83-1.59,7.17l-.6,1.74c-1.47,2.28-.06,2.91,4.25,1.9.09-.45-1.63-4.16-1.8-4.77-.61-2.2-.88-4.35-.98-6.62h-12c.31,3.31.06,6.13-.92,9.29h11.57c-1.14-3.24-1.6-6.2-1.45-9.65l-11.18,3.03c1.46,2.96,1.71,5.95.94,9.14h11.57c-.72-1.82-1.34-3.57-1.56-5.53-.87-7.58-12.88-7.67-12,0h0Z"/>
  </g>
  <g id="Layer_4" data-name="Layer 4">
    <g>
      <path class="cls-2" d="m214.98,283.99h.57v-61.7c-.01-.26-.07-.51-.17-.74-.07-.15-.11-.32-.11-.49.01-72.97.01-146.28,0-219.93,0-1.15-.48-1.42-1.45-.8L.52,137.07c-.32.21-.51.56-.51.94v160.55s.02,181.99.02,181.99l.2,16.46c0,.46.23.66.68.59l1.22-.18c.41-.06.64-.3.69-.71.59-5.04.93-10.09,1-15.15.01-.83.23-1.61.65-2.32.2-.33.3-.31.3.08v8.99c0,.6.09.61.27.04.59-1.87,2.14-3.73,4.26-3.67,6.42.18,4.84,7.26,11.8,6.57,6.39-.63,6.56,5.97,12.23,6.13,8.37.22,14.88.82,19.97-.72.34-.1.71-.08,1.05.06,2.31,1.01,4.63.97,6.95-.11.29-.13.6-.16.91-.08l3.03.75c.25.06.52.03.74-.09,3.52-1.84,2.32-4.47,3.39-7.03.95-2.24,2.33-4.22,4.14-5.94.23-.22.51-.35.82-.38l2.57-.28c.29-.03.55.03.8.17l3.75,2.16c.26.15.56.2.84.15,4.38-.77,5.88,3.43,10.16,1.41.31-.15.63-.16.95-.02l12.55,5.37c.36.15.69.11,1-.14l2.94-2.38c.22-.18.4-.4.52-.66.44-.94.04-2.06-.9-2.5l-6.3-2.92c-.24-.12-.4-.36-.41-.63-.01-.4.3-.73.7-.74,2.94-.05,6.46-.25,8.87-2.25.64-.53,1.32-1.01,2.03-1.43.29-.17.6-.24.94-.2.68.08.89.35.62.8-.23.39-.12.59.33.6,2.42.05,4.79-.34,7.1-1.17.29-.11.5-.29.63-.56.09-.18.26-.33.51-.46.14-.07.31-.09.52-.06,2.78.37,4.1-.1,3.97-1.42l-12,.04c-.41,0-.62-.21-.63-.62l-.38-27.53c0-.28.23-.51.51-.51h26s0,0,.01,0c.28,0,.5-.23.49-.51-.28-11.05-.62-22.79,1.11-32.21,6.32-34.37,35.86-55.92,70.44-54.85.16,0,.3-.01.42-.05v-76.45Z"/>
      <path class="cls-2" d="m.56,637.88h142.16c.2-.15.34-.38.34-.65v-37.91c-.38-28.91-.5-57.81-.37-86.7.05-11.03.19-22.39.44-34.07.03-1.29-.6-1.94-1.89-1.93l-12.23.06c.13,1.32-1.19,1.79-3.97,1.42-.21-.03-.38,0-.52.06-.25.13-.42.28-.51.46-.13.27-.34.45-.63.56-2.31.83-4.68,1.22-7.1,1.17-.45,0-.56-.21-.33-.6.27-.45.06-.72-.62-.8-.34-.04-.65.03-.94.2-.71.42-1.39.9-2.03,1.43-2.41,2-5.93,2.2-8.87,2.25-.27,0-.51.17-.63.41-.17.36-.02.79.34.96l6.3,2.92c.26.12.48.3.66.52.66.8.53,1.99-.27,2.64l-2.94,2.38c-.31.25-.64.29-1,.14l-12.55-5.37c-.32-.14-.64-.13-.95.02-4.28,2.02-5.78-2.18-10.16-1.41-.28.05-.58,0-.84-.15l-3.75-2.16c-.25-.14-.51-.2-.8-.17l-2.57.28c-.31.03-.59.16-.82.38-1.81,1.72-3.19,3.7-4.14,5.94-1.07,2.56.13,5.19-3.39,7.03-.22.12-.49.15-.74.09l-3.03-.75c-.31-.08-.62-.05-.91.08-2.32,1.08-4.64,1.12-6.95.11-.34-.14-.71-.16-1.05-.06-5.09,1.54-11.6.94-19.97.72-5.67-.16-5.84-6.76-12.23-6.13-6.96.69-5.38-6.39-11.8-6.57-2.12-.06-3.67,1.8-4.26,3.67-.18.57-.27.56-.27-.04v-8.99c0-.39-.1-.41-.3-.08-.42.71-.64,1.49-.65,2.32-.07,5.06-.41,10.11-1,15.15-.05.41-.28.65-.69.71l-1.22.18c-.45.07-.67-.13-.68-.59l-.2-16.46v152.01s0,4.26,0,4.26c0,.53.19.87.53,1.06Z"/>
    </g>
  </g>
  <g id="Layer_3" data-name="Layer 3">
    <path class="cls-1" d="m214.49,637.88c.17-.13.28-.32.28-.54l.05-61.52-.04-98.62c0-.31-.26-.56-.57-.56l-35.41-.12c-.57,0-1.03.47-1.03,1.04v117.75s-.01,42.16-.01,42.16h0c0,.16.06.3.17.41h36.56Z"/>
  </g>
  <g id="Layer_2-2" data-name="Layer 2">
    <path d="m214.56,360.49c-34.58-1.07-64.12,20.48-70.44,54.85-1.73,9.42-1.39,21.16-1.11,32.21,0,0,0,0,0,.01,0,.28-.22.5-.5.5h-26c-.28,0-.51.23-.51.51l.38,27.53c0,.41.22.62.63.62l12-.04,12.23-.06c1.29,0,1.92.64,1.89,1.93-.25,11.68-.39,23.04-.44,34.07-.13,28.89,0,57.79.36,86.7l.21-5.62s0-.03,0-.04c.03-.09.12-.14.21-.11.09.03.19.06.28.09.07.02.1.06.1.13-.22,5.51-.27,11.01-.15,16.52,0,.23.05.39.14.5.07.08.14.14.22.17.21.09.32.03.33-.2.36-7.89-.08-17.13.43-23.69.03-.47.31-1.39.82-2.76.15-.39.28-.39.39.02l2.16,8.37c.09.35-.03.58-.37.69-.41.13-.58.38-.52.73.01.03.04.06.07.07.06.02.12-.01.14-.07.04-.19.09-.35.14-.5.01-.05.06-.08.11-.07.05.01.08.06.07.11-.07.39.07.65.42.8.12.05.26.07.39.04,3.54-.7,7.11-1.06,10.72-1.08.35,0,.65-.11.91-.34l2.51-2.22s.03-.03.04-.06c.02-.07-.02-.15-.09-.17-.1-.03-.2-.07-.3-.1-.13-.04-.16-.12-.09-.23.42-.77,1-1.12,1.74-1.05.45.04.68.29.68.74v3.07c0,.33.17.5.5.5h8.65c.42,0,.67-.2.76-.61l.88-3.91c.04-.16.18-.27.35-.28.2,0,.36.16.36.36v3.68c0,.35.17.57.52.64.61.13.93.75.97,1.87v-117.75c.01-.57.47-1.04,1.04-1.04l35.41.12c.31,0,.57.25.57.56v-116.73c-.08,0-.14.03-.22.02Zm-.29,88.82h-35.98c-.26,0-.46-.2-.47-.46-.09-7.11-.12-14.28-.09-21.52.09-20.56,15.9-37.02,36.54-37.5.33,0,.5.15.5.48v58.5c0,.28-.22.5-.5.5Z"/>
    <path d="m142.72,637.88h35.2c-.1-.11-.17-.25-.17-.41v-42.16c-.04-1.12-.36-1.74-.97-1.87-.35-.07-.52-.29-.52-.64v-3.68c0-.16-.12-.31-.28-.35-.19-.05-.39.07-.43.27l-.88,3.91c-.09.41-.34.61-.76.61h-8.65c-.33,0-.5-.17-.5-.5v-3.07c0-.45-.23-.7-.68-.74-.74-.07-1.32.28-1.74,1.05-.07.11-.04.19.09.23.1.03.2.07.3.1.02,0,.05.02.06.04.05.06.04.14-.01.19l-2.51,2.22c-.26.23-.56.34-.91.34-3.61.02-7.18.38-10.72,1.08-.13.03-.27.01-.39-.04-.35-.15-.49-.41-.42-.8.01-.05-.02-.1-.07-.11-.05-.01-.1.02-.11.07-.05.15-.1.31-.14.5-.01.03-.04.06-.07.07-.06.02-.12-.01-.14-.07-.06-.35.11-.6.52-.73.34-.11.46-.34.37-.69l-2.16-8.37c-.11-.41-.24-.41-.39-.02-.51,1.37-.79,2.29-.82,2.76-.51,6.56-.07,15.8-.43,23.69-.01.23-.12.29-.33.2-.08-.03-.15-.09-.22-.17-.09-.11-.13-.27-.14-.5-.12-5.51-.07-11.01.15-16.52,0-.07-.03-.11-.1-.13-.09-.03-.19-.06-.28-.09-.01,0-.03,0-.04,0-.09,0-.18.06-.18.16l-.21,5.62v37.91s.01,0,.01,0c0,.27-.14.5-.34.65Z"/>
  </g>
</svg>